<svg width="512" height="512" viewBox="0 0 512 512" fill="none" xmlns="http://www.w3.org/2000/svg">
  <!-- App Icon Background: Brand Blue -->
  <rect width="512" height="512" rx="110" fill="#2563EB"/>
  
  <!-- The Card: White, Centered, Rounded -->
  <rect x="106" y="86" width="300" height="340" rx="40" fill="white"/>
  
  <!-- Main Symbol: Elongated North Star (Distinct from Gemini's square star) -->
  <path d="M256 145 C 256 145, 276 215, 316 250 C 276 285, 256 355, 256 355 C 256 355, 236 285, 196 250 C 236 215, 256 145, 256 145 Z" fill="#2563EB"/>
  
  <!-- Secondary Symbol: Small Sparkle (Adds detail and meaning) -->
  <path d="M340 130 C 340 130, 346 150, 360 160 C 346 170, 340 190, 340 190 C 340 190, 334 170, 320 160 C 334 150, 340 130, 340 130 Z" fill="#2563EB"/>
</svg>